<svg id="Layer_1" data-name="Layer 1" xmlns="http://www.w3.org/2000/svg" viewBox="0 0 246.37 56.45">
  <defs>
    <style>
      .cls-1 {
        opacity: 0.99;
      }

      .cls-1, .cls-3, .cls-5 {
        isolation: isolate;
      }

      .cls-2 {
        fill: #c50;
      }

      .cls-3 {
        opacity: 0.98;
      }

      .cls-4 {
        fill: #930;
      }
    </style>
  </defs>
  <title>Orbital-Shift-Logo</title>
  <g class="cls-1">
    <path class="cls-2" d="M132.62,56.45c-.26,0-.39-.09-.39-.26a1.16,1.16,0,0,1,.06-.33l.64-1.4a.89.89,0,0,1,.86-.58h12.56l-8.16-4.72a3.42,3.42,0,0,1-1.35-1.23,2.71,2.71,0,0,1-.37-1.33,3.91,3.91,0,0,1,.49-1.85,5.54,5.54,0,0,1,1.34-1.66,6.93,6.93,0,0,1,4.55-1.64h16.22c.28,0,.42.09.42.28a.57.57,0,0,1-.09.29l-.62,1.41a.89.89,0,0,1-.86.59H145.74l8.16,4.71A3.28,3.28,0,0,1,155.26,50a2.84,2.84,0,0,1,.35,1.32,4,4,0,0,1-.47,1.85,5.36,5.36,0,0,1-1.33,1.66,7,7,0,0,1-2,1.19,7.06,7.06,0,0,1-2.56.45Z"/>
    <path class="cls-2" d="M171.21,56.45c-.28,0-.42-.09-.42-.26a.63.63,0,0,1,.09-.33l2.8-6.3h-6.6l-2.82,6.3a.87.87,0,0,1-.81.59h-7.57c-.28,0-.42-.09-.42-.26a.63.63,0,0,1,.09-.33L161.73,42a.87.87,0,0,1,.84-.57h7.56c.27,0,.4.09.4.28a.57.57,0,0,1-.09.29l-2.22,5h6.62l2.2-5a.87.87,0,0,1,.86-.57h7.55c.26,0,.39.09.39.28a.79.79,0,0,1-.06.29l-6.19,13.84a.85.85,0,0,1-.81.59Z"/>
    <path class="cls-2" d="M182.37,56.45c-.27,0-.4-.09-.4-.26a.93.93,0,0,1,.07-.33L188.22,42a.86.86,0,0,1,.83-.57h7.57c.28,0,.42.09.42.28A.57.57,0,0,1,197,42l-6.16,13.84a.87.87,0,0,1-.83.59Z"/>
    <path class="cls-2" d="M210.5,44a3.55,3.55,0,0,0-2.35.77,6.59,6.59,0,0,0-1.67,2.46l-3.83,8.61a.9.9,0,0,1-.86.59h-8.42c-.27,0-.4-.09-.4-.26a.81.81,0,0,1,0-.16,1.2,1.2,0,0,1,.06-.17l3.67-8.21a10.71,10.71,0,0,1,1.5-2.5,10.33,10.33,0,0,1,2.06-2,9.93,9.93,0,0,1,2.59-1.28,9.7,9.7,0,0,1,3-.46h16c.28,0,.41.09.41.28a.79.79,0,0,1-.06.29l-.64,1.41a.89.89,0,0,1-.86.59Zm-2.9,5.54c-.27,0-.4-.08-.4-.26a.61.61,0,0,1,.09-.31l.62-1.43a.85.85,0,0,1,.85-.57H219.3c.3,0,.44.07.44.22a.28.28,0,0,1,0,.09.28.28,0,0,0,0,.09l-.81,1.78a.78.78,0,0,1-.77.39Z"/>
    <path class="cls-2" d="M224.32,56.45q-.33,0-.33-.15l0-.14L229.42,44H223c-.21,0-.31-.05-.31-.15v-.09l.9-2.05a.58.58,0,0,1,.55-.28h21.61q.3,0,.3.15a.15.15,0,0,1,0,.07.35.35,0,0,0,0,.06l-.9,2.05a.55.55,0,0,1-.53.24h-6.47l-5.39,12.14a.51.51,0,0,1-.52.29Z"/>
  </g>
  <g class="cls-3">
    <path class="cls-4" d="M87.73,31.61a2.57,2.57,0,0,1-2-.81l-9-9.27a2.4,2.4,0,0,1-.37-.46,1.28,1.28,0,0,1-.14-.65v-.93a.69.69,0,0,1,.78-.78H81.1a3.53,3.53,0,0,0,2.15-.54,1.78,1.78,0,0,0,.7-1.5q0-2-2.85-2H74.41V30.8a.72.72,0,0,1-.81.81H63.31a.72.72,0,0,1-.81-.81V11.93q0-.78.81-.78H89.53a8.21,8.21,0,0,1,2.52.38,6.22,6.22,0,0,1,2,1.06,4.92,4.92,0,0,1,1.33,1.65,4.7,4.7,0,0,1,.48,2.13,5.35,5.35,0,0,1-.46,2.27,5.28,5.28,0,0,1-1.26,1.72,6.53,6.53,0,0,1-1.86,1.17,9.4,9.4,0,0,1-2.27.63l8.28,8.49a.6.6,0,0,1,.21.48.48.48,0,0,1-.13.33.53.53,0,0,1-.41.15Z"/>
    <path class="cls-4" d="M100.66,31.61q-.78,0-.78-.81V11.93a.69.69,0,0,1,.78-.78h26a6.45,6.45,0,0,1,4.49,1.37,4.88,4.88,0,0,1,1.48,3.79,4.42,4.42,0,0,1-.25,1.59A4.18,4.18,0,0,1,131.8,19a3.27,3.27,0,0,1-.78.72,8,8,0,0,1-.72.42,3.55,3.55,0,0,1,1,.59,5.09,5.09,0,0,1,1.05,1.11,6.07,6.07,0,0,1,.8,1.59,6.4,6.4,0,0,1-.11,4.25,5.35,5.35,0,0,1-1.32,2,6.79,6.79,0,0,1-2.28,1.41,9.05,9.05,0,0,1-3.3.54Zm13.44-9.39a.69.69,0,0,1-.78-.78v-2a.69.69,0,0,1,.78-.78H119a2.87,2.87,0,0,0,2.06-.57,2,2,0,0,0,.55-1.47,2,2,0,0,0-.55-1.45,2.92,2.92,0,0,0-2.06-.56h-7.56V28.1h7a3.34,3.34,0,0,0,2.46-.77,3,3,0,0,0,.75-2.21,2.88,2.88,0,0,0-.75-2.19,3.53,3.53,0,0,0-2.46-.71Z"/>
    <path class="cls-4" d="M137.29,31.61q-.78,0-.78-.81V11.93a.69.69,0,0,1,.78-.78h10.35a.69.69,0,0,1,.78.78V30.8q0,.81-.78.81Z"/>
    <path class="cls-4" d="M160.33,31.61q-.57,0-.57-.39V14.66H151q-.57,0-.57-.33V11.54q0-.39.57-.39h29.43q.57,0,.57.39v2.79q0,.33-.57.33h-8.79V31.22q0,.39-.54.39Z"/>
    <path class="cls-4" d="M204.43,31.61a2.14,2.14,0,0,1-1.56-.59L191.26,19l-9.18,9.09H195.7a.71.71,0,0,1,.81.8v1.91a.71.71,0,0,1-.81.8H175.87q-.57,0-.57-.51a1.39,1.39,0,0,1,0-.23.65.65,0,0,1,.2-.25l18.81-18.9a1.75,1.75,0,0,1,1.26-.57h2a1.81,1.81,0,0,1,1.32.57l18.54,18.84a.75.75,0,0,1,.2.3,1.47,1.47,0,0,1,0,.27q0,.48-.69.48Z"/>
    <path class="cls-4" d="M226,31.61a10.92,10.92,0,0,1-3.9-.63,7.34,7.34,0,0,1-2.73-1.75,7.26,7.26,0,0,1-1.62-2.67,10.29,10.29,0,0,1-.54-3.41V11.93a.69.69,0,0,1,.78-.78h11.49q.81,0,.81.78V23.68a5.69,5.69,0,0,0,.78,3.38,3.25,3.25,0,0,0,2.76,1h11.79a.7.7,0,0,1,.78.8v1.91a.7.7,0,0,1-.78.8Z"/>
  </g>
  <g class="cls-5">
    <path class="cls-4" d="M26.85,0V13.47L14.29,21.13l12.5,7.66.06,13.38L0,26.7V15.44Z"/>
    <path class="cls-4" d="M31,42.17V28.7L43.56,21,31.09,13.38,31,0,57.88,15.47V26.73Z"/>
  </g>
</svg>
