<svg xmlns="http://www.w3.org/2000/svg" width="1562.014" height="334.824" viewBox="0 0 1562.014 334.824"><defs><style>.a{fill:#930;}.b{fill:#c50;}</style></defs><g transform="translate(1464.575 -7133.803)"><g transform="translate(-1467.367 7133.803)"><g transform="translate(328.485 261.567) rotate(180)"><g transform="translate(0 0)"><path class="a" d="M150.085,4.856V79.6a4.906,4.906,0,0,1-2.058,4.01L85.693,126.749a4.9,4.9,0,0,0,0,8.021l62.333,43.142a4.747,4.747,0,0,1,2.058,4.01v74.739a4.791,4.791,0,0,1-7.5,4.01L2.179,167.46A4.859,4.859,0,0,1,0,163.45V96.974a4.7,4.7,0,0,1,2.179-4.01L142.58.846A4.791,4.791,0,0,1,150.085,4.856Z" transform="translate(0 0)"/><path class="a" d="M0,256.661V181.922a4.906,4.906,0,0,1,2.058-4.01l62.333-43.142a4.9,4.9,0,0,0,0-8.021L2.058,83.606A4.747,4.747,0,0,1,0,79.6V4.856A4.791,4.791,0,0,1,7.5.846l140.4,92.118a4.859,4.859,0,0,1,2.179,4.01v67.691a4.7,4.7,0,0,1-2.179,4.01L7.5,260.793A4.875,4.875,0,0,1,0,256.661Z" transform="translate(175.609 0)"/></g></g></g><g transform="translate(-1120.021 7195.846)"><g transform="translate(424.447 171.501)"><path class="b" d="M95.231,129.5c-1.839,0-2.758-.582-2.758-1.763a6.891,6.891,0,0,1,.464-2.21l4.446-9.423a6.192,6.192,0,0,1,5.972-3.973h87.51L134.035,80.31a23.71,23.71,0,0,1-9.414-8.317,17.973,17.973,0,0,1-2.531-8.925,26.149,26.149,0,0,1,3.374-12.493,38.408,38.408,0,0,1,9.346-11.211,48.205,48.205,0,0,1,14.1-8.031,49.924,49.924,0,0,1,17.622-3.045H279.479c1.94,0,2.91.641,2.91,1.932a4,4,0,0,1-.607,1.932l-4.294,9.49a6.192,6.192,0,0,1-5.972,4.007H186.6L243.46,77.417a22.539,22.539,0,0,1,9.507,8.436,19.013,19.013,0,0,1,2.455,8.908,26.449,26.449,0,0,1-3.307,12.468,37.116,37.116,0,0,1-9.279,11.2,48.224,48.224,0,0,1-14.1,8.014,50.184,50.184,0,0,1-17.773,3.045Z" transform="translate(-92.473 -28.245)"/><path class="b" d="M221.4,129.52c-1.94,0-2.91-.59-2.91-1.78a4.217,4.217,0,0,1,.607-2.227l19.461-42.447H192.584l-19.613,42.447a6,6,0,0,1-5.677,4.007H114.572c-1.94,0-2.91-.59-2.91-1.78a4.27,4.27,0,0,1,.625-2.227l43.021-93.355a6.074,6.074,0,0,1,5.82-3.863h52.713c1.839,0,2.759.641,2.759,1.932a3.906,3.906,0,0,1-.607,1.932L200.555,65.7h46.134l15.319-33.539a6.015,6.015,0,0,1,5.973-3.863h52.578c1.83,0,2.75.641,2.75,1.932a4.764,4.764,0,0,1-.464,1.932l-43.021,93.355a5.98,5.98,0,0,1-5.66,4.007Z" transform="translate(50.206 -28.267)"/><path class="b" d="M136.321,129.512c-1.839,0-2.767-.59-2.767-1.78a7.029,7.029,0,0,1,.464-2.227L177.039,32.15a6.107,6.107,0,0,1,5.821-3.863h52.722c1.94,0,2.919.641,2.919,1.932a3.933,3.933,0,0,1-.616,1.932l-42.869,93.355a6.1,6.1,0,0,1-5.829,4.007Z" transform="translate(212.984 -28.259)"/><path class="b" d="M264.784,45.669a25.256,25.256,0,0,0-16.4,5.2,44.869,44.869,0,0,0-11.649,16.618l-26.665,58.036a6.191,6.191,0,0,1-5.972,4.007H145.4c-1.839,0-2.758-.59-2.758-1.78a4.742,4.742,0,0,1,.464-2.227L168.7,70.166A74.4,74.4,0,0,1,179.113,53.3a69.327,69.327,0,0,1,14.408-13.21,67.607,67.607,0,0,1,18-8.68,70.116,70.116,0,0,1,21.232-3.121H344.018c1.94,0,2.91.641,2.91,1.932a4.918,4.918,0,0,1-.464,1.932l-4.437,9.49a6.2,6.2,0,0,1-5.989,4.007ZM244.539,83.081c-1.83,0-2.75-.6-2.75-1.788a4.1,4.1,0,0,1,.608-2.075l4.294-9.642a6.014,6.014,0,0,1,5.98-3.863h73.389c2.041,0,3.062.5,3.062,1.485a2.936,2.936,0,0,1-.067.6,2.028,2.028,0,0,0-.084.59l-5.677,12.021a5.441,5.441,0,0,1-5.357,2.674Z" transform="translate(280.527 -28.282)"/><path class="b" d="M178.491,129.528c-1.535,0-2.295-.346-2.295-1.038l.3-.894,37.554-81.934H169.338c-1.434,0-2.151-.337-2.151-1.038v-.59l6.285-13.8A4.016,4.016,0,0,1,177.31,28.3h150.5c1.425,0,2.142.346,2.142,1.038a.892.892,0,0,1-.084.447,1.057,1.057,0,0,0-.068.447l-6.284,13.8a3.856,3.856,0,0,1-3.686,1.628H274.773L237.227,127.6a3.653,3.653,0,0,1-3.678,1.932Z" transform="translate(463.061 -28.275)"/></g><g transform="translate(0.794 0)"><path class="a" d="M209.6,146.367a16.871,16.871,0,0,1-13.1-5.466l-59.74-62.558a16.54,16.54,0,0,1-2.48-3.138,8.613,8.613,0,0,1-.894-4.353V64.577a4.606,4.606,0,0,1,5.179-5.23h27.188A22.86,22.86,0,0,0,179.942,55.7a12.139,12.139,0,0,0,4.665-10.123q0-13.564-18.853-13.564H121.476V140.9a4.783,4.783,0,0,1-5.357,5.466H48.045a4.791,4.791,0,0,1-5.365-5.466V13.559A4.7,4.7,0,0,1,48.045,8.3H221.513a53.329,53.329,0,0,1,16.668,2.531A40.879,40.879,0,0,1,251.6,18.013a33.3,33.3,0,0,1,8.832,11.135,32.216,32.216,0,0,1,3.18,14.34,36.621,36.621,0,0,1-3.079,15.285A35.95,35.95,0,0,1,252.2,70.414a43.235,43.235,0,0,1-12.307,7.9,61,61,0,0,1-14.99,4.218l54.831,57.294a4.108,4.108,0,0,1,1.384,3.239,3.265,3.265,0,0,1-.894,2.227,3.374,3.374,0,0,1-2.674,1.012Z" transform="translate(-42.627 -8.17)"/><path class="a" d="M77.16,146.43c-3.45,0-5.163-1.822-5.163-5.466V13.622A4.606,4.606,0,0,1,77.16,8.359H249.429a42.034,42.034,0,0,1,29.659,9.211,33.405,33.405,0,0,1,9.819,25.61,30.37,30.37,0,0,1-1.687,10.73,28.534,28.534,0,0,1-4.074,7.491,21.737,21.737,0,0,1-5.163,4.859,52.835,52.835,0,0,1-4.758,2.834,23.308,23.308,0,0,1,6.942,3.948,34.309,34.309,0,0,1,6.951,7.491,43.519,43.519,0,0,1,4.623,39.478,36.676,36.676,0,0,1-8.731,13.261,44.707,44.707,0,0,1-15.091,9.515,58.815,58.815,0,0,1-21.831,3.644Zm88.893-63.4a4.606,4.606,0,0,1-5.162-5.264V64.64a4.606,4.606,0,0,1,5.163-5.23h32.358A18.559,18.559,0,0,0,212,55.563a13.767,13.767,0,0,0,3.669-9.92A13.429,13.429,0,0,0,212,35.824a18.946,18.946,0,0,0-13.59-3.745H148.389v90.664h46.64a21.73,21.73,0,0,0,16.281-5.188,20.846,20.846,0,0,0,4.96-14.956,19.689,19.689,0,0,0-4.96-14.754,22.953,22.953,0,0,0-16.281-4.783Z" transform="translate(175.36 -8.233)"/><path class="a" d="M105.886,146.354q-5.162,0-5.162-5.466V13.546a4.614,4.614,0,0,1,5.162-5.264h68.471a4.614,4.614,0,0,1,5.162,5.264V140.922q0,5.466-5.162,5.466Z" transform="translate(388.967 -8.157)"/><path class="a" d="M177.089,146.32q-3.77,0-3.771-2.632V31.935H115.367c-2.531,0-3.771-.742-3.771-2.227V10.88c0-1.746,1.248-2.632,3.771-2.632h194.7c2.53,0,3.77.886,3.77,2.632V29.708q0,2.227-3.77,2.227H251.911V143.654q0,2.632-3.568,2.632Z" transform="translate(470.193 -8.123)"/><path class="a" d="M323.819,146.35a13.835,13.835,0,0,1-10.317-4.015L236.689,61.354,175.953,122.7h90.1a4.766,4.766,0,0,1,5.348,5.424v12.847a4.757,4.757,0,0,1-5.348,5.416H134.873q-3.77,0-3.771-3.442a4.948,4.948,0,0,1,.3-1.518,3.808,3.808,0,0,1,1.291-1.687L257.137,12.091a11.447,11.447,0,0,1,8.326-3.847h13.108a11.886,11.886,0,0,1,8.731,3.847L409.954,139.23a5.061,5.061,0,0,1,1.3,2.025,6.757,6.757,0,0,1,.3,1.822c0,2.16-1.527,3.239-4.564,3.239Z" transform="translate(615.23 -8.152)"/><path class="a" d="M222.155,146.366a71.061,71.061,0,0,1-25.813-4.218,48.5,48.5,0,0,1-18.052-11.81,49.117,49.117,0,0,1-10.721-18.018,70.565,70.565,0,0,1-3.577-22.978V13.558a4.615,4.615,0,0,1,5.171-5.264h76a4.707,4.707,0,0,1,5.365,5.281V92.868a39.124,39.124,0,0,0,5.154,22.776,21.3,21.3,0,0,0,18.263,6.993h78q5.162,0,5.163,5.424v12.847q0,5.416-5.163,5.416Z" transform="translate(859.402 -8.169)"/></g></g></g></svg>