<svg xmlns="http://www.w3.org/2000/svg" width="384" height="298.628" viewBox="0 0 384 298.628"><g transform="translate(-122 -146)"><g transform="translate(122 145)"><g transform="translate(0 1)"><path d="M177.767,11.452v74.5a11.5,11.5,0,0,1-5.018,9.456L108.237,139.83a11.513,11.513,0,0,0,0,18.913l64.512,44.416a11.5,11.5,0,0,1,5.018,9.456v74.362a11.472,11.472,0,0,1-17.777,9.6L5.161,194.276A11.7,11.7,0,0,1,0,184.676V112.607a11.7,11.7,0,0,1,5.161-9.6L159.991,2A11.416,11.416,0,0,1,177.767,11.452Z" transform="translate(0 0.056)"/><path d="M144,287.145v-74.5a11.5,11.5,0,0,1,5.018-9.456l64.512-44.416a11.513,11.513,0,0,0,0-18.913L149.018,95.438A11.5,11.5,0,0,1,144,85.981v-74.5a11.472,11.472,0,0,1,17.777-9.6l154.83,101.012a11.346,11.346,0,0,1,5.161,9.6v73.5a11.7,11.7,0,0,1-5.161,9.6L161.777,296.6A11.374,11.374,0,0,1,144,287.145Z" transform="translate(62.233 0.032)"/></g></g></g></svg>